<svg x="0px" y="0px" viewBox="0 0 1920 1080">
          <path
            class="svg__line"
            d="M656.47,706.68c-10.21,3.16-41.22-1.17-91.87-21.97c-45.13-19.24-70.65-29.05-80.47-32.98
              c-21.99-7.83-43.98-5.51-61.64,2.75c-10.21,4.31-12.57,3.54-20.82-5.88c-8.24-9.82-7.85-12.58,6.67-15.32
              c11.78-2.76,22.78-3.15,40.05-3.15c3.93,0,7.47,0.39,11.78,0.79c-0.4-18.46-3.91-31.82-8.24-39.27
              c-9.81-18.43-11.38-28.65,0.4-54.58c4.31-9.42,2.34-11.38-10.21-5.88c-9.81,3.92-24.33,3.92-32.58,1.17
              c-4.73-1.57-5.9-5.88,3.14-7.85c10.98-2.35,34.14-12.95,37.28-15.71c5.1-4.71,8.64-5.48,25.92,4.73
              c12.16,7.45,14.12,14.52,6.65,21.19c-23.54,20.41-23.94,39.64-17.26,51.41c10.61,18.85,11.01,29.86,5.9,47.14
              c7.85,1.56,16.86,4.31,29.44,8.63c98.54,33.37,127.19,34.95,235.16,26.31c11.78-0.78,13.35,6.27,4.71,9.43
              C719.3,686.27,684.34,698.45,656.47,706.68z M468.05,459.36c-9.83-6.67-20.82-17.66-32.97-32.19c-5.9-6.67-5.5-10.99,9.02-9.82
              c26.3,1.97,40.84,12.96,42.39,29.84C487.65,458.59,479.43,466.43,468.05,459.36z M679.63,460.93c-25.9-0.79-57.7,1.97-85.57,5.89
              c10.21,10.6,9.41,12.56,3.54,18.45c-5.5,4.71-12.97,14.53-18.85,23.17c17.28-1.98,34.54-6.3,43.58-9.82
              c11.78-4.71,16.49-5.49,28.66,0.79c16.09,8.24,17.26,13.75,9.81,25.13c-5.5,8.24-3.54,49.46-1.97,65.55
              c2.76,24.36,1.17,37.72-3.91,51.05c-9.44,22.77-14.54,21.2-20.82-1.18c-4.33-13.73-5.5-14.53-35.73-11.77
              c-14.92,1.58-27.87,3.13-39.25,5.1c-1.57,17.66-8.64,15.32-13.35,4.31c-5.9-12.54-6.3-18.44-3.54-29.84
              c4.71-19.25,3.14-80.48-1.17-88.73c-5.5-10.21-2.76-14.52,9.02-8.63c5.1,0,11,0,17.28-0.78c10.98-19.64,14.14-32.97,10.98-40.44
              c-8.64,1.18-16.88,2.75-23.54,4.32c-18.47,4.32-21.99,4.32-33.77,1.18c-12.57-3.92-11-8.64,10.98-10.61
              c4.71-0.77,104.42-17.26,113.86-19.62c23.94-6.67,39.25-7.06,49.06,0C708.3,453.08,709.09,461.71,679.63,460.93z M562.66,435.03
              c-5.5-6.68-11.78-16.5-15.32-26.7c-3.54-10.21-0.79-12.57,6.67-10.21c18.85,6.67,23.16,12.95,26.3,24.73
              C583.85,436.98,570.5,444.04,562.66,435.03z M636.85,528.84c-1.57-17.26-3.54-19.62-21.59-17.26
              c-32.58,5.11-43.96,7.06-57.31,7.06c0.77,5.89,1.95,16.1,2.34,28.64c39.25-12.16,45.15-11.76,52.62-9.4
              c9.02,2.35,8.24,8.63-6.3,12.17c-15.32,3.54-29.44,5.51-46.32,3.14c0.4,9.04,0.4,18.86,0.4,28.66c42.79-9.43,45.55-9.8,52.22-7.86
              c10.98,3.53,8.24,9.83-2.36,11.79c-18.45,3.92-29.84,5.1-50.25,3.54c0.4,11.77,0,23.56-0.4,34.54
              c57.72-12.18,60.86-12.18,69.48-5.88c3.16,2.73,7.07,3.13,7.87-9.44C638.81,583.83,638.42,542.58,636.85,528.84z M611.34,436.98
              c-5.5,3.53-9.83-0.39-3.93-7.46c20.8-24.73,26.7-35.34,24.33-42.4c-4.31-14.53,1.57-15.3,22.39-6.29
              c15.32,7.07,18.06,15.32,3.91,24.34C654.92,407.14,629.77,424.42,611.34,436.98z"
          />

          <path
            class="svg__line"
            d="M891.95,575.05c0.4,11.6,0.4,58.83-1.19,79.63c-3.62,34.43-12.01,37.21-16.01,29.63
              c-12.01-21.63-12.8-30.01-6.82-42.43c7.22-13.6,8.81-76.02,6.82-102.42c-17.22,17.61-37.62,32.82-60.42,44.01
              c-10,4.8-12.41,0.81-2.8-7.61c68.02-58.41,89.21-98.42,86.83-109.62c-2.41-10.81,4.39-14.8,15.19-5.2
              c16.8,14.39,16.01,20,7.62,26.4c-6.01,4.8-14.42,12.8-36.41,39.61C891.15,537.85,891.55,546.26,891.95,575.05z M834.33,475.03
              c21.61-17.6,35.21-31.61,50.82-56.01c11.99-18.41,13.2-23.2,11.59-30.81c-1.99-9.21,4-12.41,22.81,2c10.42,8,10.42,12,2.8,18.81
              c-4.39,4.79-10.8,11.19-20.8,23.2c-20.82,24-44.82,40.4-63.62,49.61C827.13,487.44,824.33,483.44,834.33,475.03z M967.96,391.4
              c-5.98-7.59-4-14,7.62-10.8c25.61,7.61,27.2,14.39,24.39,22.81c-3.6,9.6-6,30-7.59,76.02c16.8-5.6,31.61-5.99,39.21-4.01
              c7.59,2.01,8.41,10.01-4.81,13.61c-5.19,1.2-25.19,7.21-34.79,10.01c-0.79,29.6-1.21,75.61-0.42,98.02
              c1.61,44.8,1.19,64.02-1.99,72.41c-4.41,12.81-10,11.6-16.4-0.4c-7.2-12.79-6.82-22.41-2.41-33.2c3.2-9.22,6.4-41.21,7.2-107.62
              c-13.6,37.6-40.4,76-68.02,96.83c-6.8,5.19-10-0.42-5.19-6c24.4-26.4,48-68.82,63.21-114.84c-22.01,4.4-28.81,3.2-36.4,0
              c-4.81-1.6-5.21-3.6,0.4-4.8c12.41-2,25.21-5.6,46.01-14C977.17,417.82,974.76,399.02,967.96,391.4z M1034.39,581.07
              c-6.4-3.22-26.4-20.02-38.83-34.43c-3.18-4-1.99-6.39,4.41-5.59c31.22,4.39,42.83,18.39,44.42,27.6
              C1045.98,581.07,1042.8,584.65,1034.39,581.07z M1036,455.43c-8.01-4-18.41-9.6-27.62-18.81c-3.2-3.2-3.2-7.59,3.2-7.99
              c23.6-1.2,31.59,2.4,34.4,15.2C1047.99,453.42,1041.19,457.83,1036,455.43z M1113.2,528.26c-2.01,8.39-2.41,24,0,59.2
              c5.61,72.02,3.2,87.63-17.22,111.23c-4.79,5.21-8.79,5.61-10.78,0.41c-6.82-13.6-17.22-26.81-37.62-47.22
              c-4.79-4.39-2.41-7.2,3.6-5.2c33.2,10.81,37.6,8.81,38.41,0c7.62-58.8,0.79-122.83-7.59-142.84c-22.83,2.8-36.43,2.8-50.02,0.4
              c-5.21-0.79-3.6-7.2,2.01-7.59c32.39-3.2,52.81-8.41,84.82-18.41c23.22-6.8,34.81-6.8,45.21-2.41c9.6,4.41,7.59,12.41-3.6,14.42
              c-20,4-43.62,8.4-59.21,10.8C1115.21,513.44,1116,517.04,1113.2,528.26z M1108.41,411.81c13.2-4.8,20.8-5.2,30.8-0.81
              c7.99,4.02,7.2,10.82-3.2,14.02c-36.01,11.59-56.8,13.6-77.62,7.59c-7.59-2-7.59-7.2-0.82-8
              C1077.59,421.83,1090.4,418.61,1108.41,411.81z"
          />

          <path
            class="svg__line"
            d="M1435.67,380.74c25.15-2.93,34.77-4.61,41.49-6.71c7.95-2.52,14.67-1.67,31.4,7.54
              c17.18,9.63,18.01,13.83,12.16,22.62c-6.28,8.81-8.37,28.08-6.28,66.62c3.77,58.64,6.7,151.22,5.86,178.88
              c-0.84,23.87-5.02,38.12-12.99,51.53c-3.77,6.7-9.62,7.95-13.81-0.42c-5.04-10.9-10.48-21.38-14.25-30.59
              c-5.02-13.83-6.72-14.67-19.27-14.67c-16.76-0.42-64.52,2.09-97.21,5.02c-48.16,4.21-66.6,4.21-80.84,0.42
              c-0.42,20.54-9.23,31.42-13.41,28.5c-12.99-10.9-15.5-21.36-11.32-45.25c2.95-19.69,5.88-75.82,5.46-133.63
              c-0.42-75.4-2.93-95.51-10.48-105.99c-6.7-9.62-2.51-18.43,24.29-7.95C1291.98,397.49,1324.24,394.56,1435.67,380.74z
               M1444.06,635.86c17.6-2.09,31.01,1.67,37.28,10.48c6.28,9.2,10.9,7.95,12.16-2.95c1.67-14.65,2.09-47.74,1.26-108.91
              c-0.84-52.79-2.93-95.94-5.04-108.5c-5.02-25.14-11.3-30.16-30.15-30.16c-17.6,0-118.98,8.79-145.79,13.4
              c-12.16,2.09-22.64,2.51-31.84,0.84c-1.26,118.97-1.26,188.94-0.42,240.05C1318.8,649.69,1343.51,647.6,1444.06,635.86z
               M1382.47,567.99c1.26,1.67,0,4.6-12.97,11.32c-28.5,14.67-34.77,18.01-45.25,25.55c-8.37,5.88-11.74,5.88-25.55-3.35
              c-11.74-8.37-10.9-12.57-0.42-11.74c6.7,0.42,19.27-2.51,50.69-13.81C1377.45,565.48,1380.38,565.06,1382.47,567.99z
               M1306.65,469.13c-10.46-4.61-9.62-8.39,1.26-9.23c20.52-1.26,47.77-5.86,66.2-10.46c-5.02-12.16-9.65-20.54-18.01-31.43
              c-5.02-7.12-2.09-11.32,9.21-9.22c15.08,4.19,20.55,8.8,20.96,18.43c0.42,5.87,1.26,11.73,2.51,18.85
              c19.27-5.45,28.06-5.87,33.52-3.36c8.79,3.36,9.21,7.97,2.51,10.9c-7.13,3.77-17.6,6.7-30.59,9.22
              c6.28,18.43,13.41,39.39,26.82,71.22c10.04-21.37,15.48-42.73,12.55-49.85c-5.44-11.32-1.26-15.92,10.9-9.65
              c17.6,8.8,18.85,12.57,13.83,19.69c-3.37,4.19-5.88,9.65-6.72,12.16c-7.95,18.43-15.5,33.52-22.62,46.07
              c3.77,7.13,10.06,16.76,22.62,31.84c3.77,5.44,7.13,6.28,10.06,1.26c2.93-5.86,6.28-12.13,9.21-20.52
              c4.62-10.9,10.06-9.62,7.55,5.02c-2.51,18.43-3.35,31.84-0.84,44.84c2.09,9.62-3.35,12.99-12.99,7.11
              c-18.43-12.13-32.68-28.06-46.09-52.79c-13.39,19.69-27.64,31.84-51.09,41.07c-7.97,3.35-11.74-0.84-4.21-6.72
              c25.15-20.11,34.35-26.8,47.35-49.86c-9.65-22.2-19.69-50.67-31.43-88.38C1327.17,474.15,1316.71,473.73,1306.65,469.13z
               M1323.41,565.48c-3.77,0-5.44-2.51-7.11-11.74c-5.46-24.71-9.65-37.27-15.08-45.65c-4.6-6.28-0.84-10.47,11.3-6.28
              c11.74,0,25.99-3.78,35.19-9.23c6.3-3.77,12.16-4.19,20.13,1.25c12.97,8.81,13.39,12.57,8.79,15.08
              c-3.35,2.09-5.02,5.02-8.79,14.25c-2.95,9.62-2.11,11.73,2.09,16.76c4.18,4.6,3.35,5.86-2.93,7.11
              c-9.65,2.09-22.64,3.77-37.3,5.02C1330.1,559.2,1326.75,565.48,1323.41,565.48z M1327.59,543.7c21.38-4.18,23.06-5.86,23.89-12.57
              c0.84-9.62,1.25-15.07,1.67-19.27c0-6.28-3.35-7.53-13.83-3.77c-4.6,1.67-12.16,3.35-16.76,3.77
              C1323.41,521.92,1325.5,534.48,1327.59,543.7z M1465.84,442.73c0,10.48-5.02,12.57-13.41,7.13c-7.11-4.19-14.67-11.74-22.2-22.21
              c-5.86-7.54-3.35-10.47,4.6-10.05C1456.64,419.69,1465.84,429.33,1465.84,442.73z"
          />
        </svg>
